# xmcd
#
# Track frame offsets: 
#        150
#        15173
#        41688
#        64738
#        85198
#        107036
#        131238
#        146405
#
# Disc length: 2202 seconds
#
# Revision: 0
# Processed by: cddbd v1.5.1PL2 Copyright (c) Steve Scherf et al.
# Submitted via: ExactAudioCopy v0.95b4
#
DISCID=64089808
DTITLE=The Greatful Dead - Workingman's Dead (tape)
DYEAR=1970
DGENRE=
TTITLE0=Cumberland Blues
TTITLE1=Black Peter
TTITLE2=Easy Wind
TTITLE3=Casey Jones
TTITLE4=Uncle John's Band
TTITLE5=High Time
TTITLE6=Dire Wolf
TTITLE7=New Speedway Boogie
EXTD=
EXTT0=
EXTT1=
EXTT2=
EXTT3=
EXTT4=
EXTT5=
EXTT6=
EXTT7=
PLAYORDER=
